# xmcd CD database file
#
# Track frame offsets:
#	182
#	38840
#	63520
#	101295
#	127205
#	164832
#	183835
#	213565
#	240182
#
# Disc length: 3527 seconds
#
# Revision: 0
# Processed by: cddbd v1.5.1PL0 Copyright (c) Steve Scherf et al.
# Submitted via: CDex 1.51
#
DISCID=7b0dc509
DTITLE=Del Dako - Balancing Act
DYEAR=1990
DGENRE=Jazz
TTITLE0=Steve the Weave
TTITLE1=Just Don't Slip with that Axe
TTITLE2=Chelsea Bridge
TTITLE3=Evil Eye
TTITLE4=Mr. Dimminished
TTITLE5=Dick's Feelings
TTITLE6=Marika
TTITLE7=Speak Low
TTITLE8=It's All Right with Me
EXTD=YEAR: 1990
EXTT0=
EXTT1=
EXTT2=
EXTT3=
EXTT4=
EXTT5=
EXTT6=
EXTT7=
EXTT8=
PLAYORDER=
